<svg xmlns="http://www.w3.org/2000/svg" viewBox="0 0 64 64">
  <rect width="64" height="64" rx="14" fill="#0D1B2A"/>
  <g fill="#ffffff" transform="translate(6.7 7) scale(0.79)">
    <path d="M32 20.5 L30.6 8 L32 4.5 L33.4 8 Z"/>
    <path d="M30.2 22 C28.7 16 27.2 11 27.6 7.6 C29.2 10 30.5 14.5 31.4 20.5 Z"/>
    <path d="M33.8 22 C35.3 16 36.8 11 36.4 7.6 C34.8 10 33.5 14.5 32.6 20.5 Z"/>
    <path d="M28.4 20.5 L26.8 12.5 L28.8 15 Z"/>
    <path d="M35.6 20.5 L37.2 12.5 L35.2 15 Z"/>
    <path d="M32 20.5 C27.4 20.5 21.3 23.6 14.8 29.2 C10.2 32.8 7.2 32.3 5.2 29.2 C6.7 34.3 11.3 40.4 21 42.4 C25.1 43.3 27.3 46 29.1 51.1 C30.3 54.7 31.2 57.6 32 60 C32.8 57.6 33.7 54.7 34.9 51.1 C36.7 46 38.9 43.3 43 42.4 C52.7 40.4 57.3 34.3 58.8 29.2 C56.8 32.3 53.8 32.8 49.2 29.2 C42.7 23.6 36.6 20.5 32 20.5 Z"/>
  </g>
</svg>
